<svg width="235" height="239" viewBox="0 0 235 239" fill="none" xmlns="http://www.w3.org/2000/svg">
<path d="M177.106 0.244141C209.049 0.244141 234.944 26.9659 234.944 59.9287C234.944 78.1901 226.996 94.5354 214.476 105.483C215.855 112.596 216.58 119.953 216.58 127.484C216.58 136.161 215.618 144.607 213.801 152.714C225.909 161.188 233.865 175.503 233.865 191.737C233.865 217.761 213.422 238.857 188.203 238.857C176.48 238.857 165.79 234.296 157.704 226.802C142.949 234.599 126.229 239 108.513 239C48.8294 239 0.446519 189.073 0.446327 127.484C0.44639 65.8961 48.8293 15.9689 108.513 15.9688C117.563 15.9688 126.353 17.1177 134.754 19.2803C145.314 7.56935 160.381 0.244245 177.106 0.244141ZM122.083 78.376C113.6 75.5485 104.328 74.8213 94.9551 76.6777C65.2358 82.5645 45.7682 112.198 51.4727 142.866C57.1775 173.534 85.894 193.624 115.613 187.737C145.333 181.851 164.801 152.217 159.097 121.549C158.759 119.736 158.34 117.96 157.847 116.224C140.938 110.064 127.635 96.0227 122.083 78.376ZM169.972 66.2432C164.101 59.8849 155.853 58.1597 151.55 62.3906C147.247 66.6215 148.518 75.2062 154.389 81.5645C160.26 87.9227 168.507 89.6469 172.811 85.416C177.113 81.1851 175.842 72.6014 169.972 66.2432Z" fill="#030303"/>
</svg>
