<svg width="601" height="208" viewBox="0 0 601 208" fill="none" xmlns="http://www.w3.org/2000/svg">
<path d="M268.252 156.597L306.042 51.3542H329.513L367.304 156.597H347.228L338.518 131.695H297.037L288.328 156.597H268.252ZM302.647 115.241H332.909L317.852 70.7723L302.647 115.241Z" fill="#050505"/>
<path d="M406.943 158.376C399.168 158.376 392.329 156.696 386.424 153.336C380.617 149.878 376.09 145.035 372.843 138.81C369.694 132.584 368.119 125.321 368.119 117.02C368.119 108.62 369.694 101.357 372.843 95.2302C376.09 89.0046 380.617 84.2118 386.424 80.8519C392.329 77.3932 399.168 75.6639 406.943 75.6639C414.717 75.6639 421.508 77.3932 427.314 80.8519C433.12 84.2118 437.598 89.0046 440.747 95.2302C443.995 101.357 445.619 108.62 445.619 117.02C445.619 125.321 443.995 132.584 440.747 138.81C437.598 145.035 433.12 149.878 427.314 153.336C421.508 156.696 414.717 158.376 406.943 158.376ZM406.943 142.96C413.044 142.96 417.719 140.687 420.967 136.142C424.313 131.596 425.986 125.222 425.986 117.02C425.986 108.917 424.313 102.592 420.967 98.0466C417.719 93.4021 413.044 91.0798 406.943 91.0798C400.841 91.0798 396.117 93.4021 392.771 98.0466C389.425 102.592 387.752 108.917 387.752 117.02C387.752 125.222 389.425 131.596 392.771 136.142C396.117 140.687 400.841 142.96 406.943 142.96Z" fill="#050505"/>
<path d="M455.771 156.597V77.4426H472.895L473.485 96.8608L471.714 95.9714C472.6 91.7221 474.125 88.1152 476.29 85.1506C478.554 82.0872 481.26 79.7649 484.409 78.1838C487.657 76.5039 491.2 75.6639 495.038 75.6639C501.73 75.6639 507.142 77.5909 511.276 81.4449C515.409 85.2 518.017 90.3881 519.099 97.009H516.59C517.476 92.3645 519.001 88.5105 521.166 85.4471C523.331 82.2848 526.037 79.8637 529.285 78.1838C532.631 76.5039 536.371 75.6639 540.504 75.6639C545.917 75.6639 550.591 76.8497 554.528 79.2214C558.464 81.4943 561.466 84.8541 563.533 89.301C565.698 93.7479 566.78 99.2324 566.78 105.755V156.597H547.885V110.646C547.885 104.124 546.753 99.2324 544.49 95.9714C542.325 92.7103 538.979 91.0798 534.452 91.0798C531.401 91.0798 528.793 91.8704 526.628 93.4515C524.463 95.0326 522.79 97.3549 521.609 100.418C520.526 103.383 519.985 106.99 519.985 111.239V156.597H502.419V111.239C502.419 104.717 501.434 99.7265 499.466 96.2678C497.498 92.8092 494.103 91.0798 489.28 91.0798C486.23 91.0798 483.622 91.8704 481.457 93.4515C479.39 95.0326 477.717 97.3549 476.438 100.418C475.257 103.383 474.666 106.99 474.666 111.239V156.597H455.771Z" fill="#050505"/>
<path d="M581.662 156.597V77.4426H600.557V156.597H581.662ZM581.367 66.9183V50.0201H601V66.9183H581.367Z" fill="#050505"/>
<path d="M184.214 54.146C184.214 37.0059 170.37 23.1111 153.293 23.1111C136.215 23.1111 122.371 37.0059 122.371 54.146C122.371 71.2861 136.215 85.1809 153.293 85.1809C170.37 85.1809 184.214 71.2861 184.214 54.146ZM207.241 54.146C207.241 84.0501 183.088 108.292 153.293 108.292C123.498 108.292 99.3442 84.0501 99.3442 54.146C99.3442 24.242 123.498 7.65756e-07 153.293 0C183.088 0 207.241 24.242 207.241 54.146Z" fill="#050505"/>
<path d="M103.621 0C105.791 0 107.946 0.0668813 110.084 0.198934C108.49 1.57713 106.96 3.02745 105.499 4.54484C97.8939 11.9278 91.9814 21.0558 88.4036 31.2867C54.8263 38.3294 29.6059 68.2082 29.6059 104C29.6059 145.027 62.7434 178.286 103.621 178.286C139.282 178.286 169.051 152.973 176.068 119.272C186.268 115.679 195.367 109.74 202.726 102.101C204.233 100.638 205.674 99.1078 207.042 97.5132C207.174 99.6585 207.241 101.821 207.241 104C207.241 161.438 160.849 208 103.621 208C46.3925 208 0 161.438 0 104C0 46.5624 46.3925 0 103.621 0Z" fill="#050505"/>
</svg>
