<svg width="102" height="42" viewBox="0 0 102 42" fill="none" xmlns="http://www.w3.org/2000/svg">
<path d="M65.2721 11.5216V17.8369H63.8982C62.3255 17.8369 61.5482 17.4323 61.2047 16.6934C60.337 17.4498 58.9993 17.9952 57.3905 17.9952C55.9443 17.9952 54.5343 17.3795 54.5343 15.8666C54.5343 13.1576 58.1859 12.2956 60.9517 11.7327V11.5216C60.9155 8.86534 60.4636 8.42556 59.8851 8.42556C59.2705 8.42556 58.8186 9.25235 58.8186 10.4661C58.8186 11.8031 57.8063 12.2604 56.8843 12.2604C56.0347 12.2604 55.2574 11.8383 55.2574 10.818C55.2574 8.97089 57.7882 8.05615 59.9394 8.05615C61.4217 8.05615 65.2721 8.17929 65.2721 11.5216ZM58.8186 14.9519C58.8186 16.025 59.0717 16.6758 59.849 16.6758C60.2828 16.6758 60.7167 16.4296 61.0421 16.2009C60.9697 15.9018 60.9517 15.5676 60.9517 15.1982V12.1021C59.8128 12.6299 58.8186 13.4742 58.8186 14.9519Z" fill="black"/>
<path d="M71.5845 18.0304C68.6199 18.0304 66.071 16.324 66.071 13.0696C66.071 9.67454 68.7464 8.05615 71.5845 8.05615C74.4226 8.05615 77.098 9.67454 77.098 13.0696C77.098 16.324 74.5491 18.0304 71.5845 18.0304ZM71.6026 17.6609C72.4522 17.6609 72.7234 16.7286 72.7234 13.0696C72.7234 9.5514 72.4522 8.42556 71.6026 8.42556C70.6987 8.42556 70.4456 9.51622 70.4456 13.0696C70.4456 16.7462 70.6807 17.6785 71.6026 17.6609Z" fill="black"/>
<path d="M79.3558 8.26724C80.8743 8.26724 81.6697 8.86534 82.0312 9.69213C82.8628 8.68943 83.8751 8.10892 85.267 8.10892C87.2736 8.10892 88.4124 8.75979 88.9186 9.76249C89.7501 8.72461 90.7805 8.10892 92.2086 8.10892C95.1552 8.10892 96.2036 9.48103 96.2036 11.4337V17.8369H91.7205V11.4512C91.7205 10.0088 91.5036 8.90052 90.6901 8.97089C90.2201 9.02366 89.6055 9.49862 89.0632 10.1319C89.1897 10.5189 89.262 10.9587 89.262 11.4337V17.8369H84.7789V11.4512C84.7789 10.0088 84.562 8.90052 83.7485 8.97089C83.2785 9.02366 82.7001 9.48103 82.1758 10.0791C82.2662 10.4134 82.3024 10.7652 82.3024 11.1346V17.8369H77.9819V8.26724H79.3558Z" fill="black"/>
<path d="M99.0534 8.26724C101.331 8.26724 102 9.58658 102 11.1346V17.8369H97.6796V8.26724H99.0534ZM99.7042 7.546C98.5473 7.546 97.6253 6.70163 97.6253 5.62856C97.6253 4.57309 98.5473 3.71112 99.7042 3.71112C100.825 3.71112 101.747 4.57309 101.747 5.62856C101.747 6.70163 100.825 7.546 99.7042 7.546Z" fill="black"/>
<path d="M55.0405 38.9463V26.0695H56.577C58.8547 26.0695 59.5236 27.3713 59.5236 28.9369V38.9463H55.0405Z" fill="black"/>
<path d="M71.4119 32.631V38.9463H70.0381C68.4654 38.9463 67.6881 38.5417 67.3446 37.8029C66.4769 38.5593 65.1392 39.1046 63.5303 39.1046C62.0842 39.1046 60.6742 38.4889 60.6742 36.9761C60.6742 34.267 64.3257 33.4051 67.0915 32.8421V32.631C67.0554 29.9748 66.6034 29.535 66.025 29.535C65.4103 29.535 64.9584 30.3618 64.9584 31.5756C64.9584 32.9125 63.9461 33.3699 63.0242 33.3699C62.1745 33.3699 61.3972 32.9477 61.3972 31.9274C61.3972 30.0803 63.928 29.1656 66.0792 29.1656C67.5615 29.1656 71.4119 29.2887 71.4119 32.631ZM64.9584 36.0613C64.9584 37.1344 65.2115 37.7853 65.9888 37.7853C66.4227 37.7853 66.8565 37.539 67.1819 37.3103C67.1096 37.0112 67.0915 36.677 67.0915 36.3076V33.2116C65.9527 33.7393 64.9584 34.5837 64.9584 36.0613Z" fill="black"/>
<path d="M78.2124 29.3415C81.2494 28.5147 83.979 31.1006 83.979 34.1439C83.979 37.3631 81.1228 39.8962 78.2124 38.9463C77.652 38.7704 77.182 38.4185 76.8747 37.9436L76.6578 38.9463H72.7712V26.0695H74.1451C76.4228 26.0695 77.0917 27.3889 77.0917 28.9369V29.9396C77.3628 29.6757 77.7424 29.4646 78.2124 29.3415ZM78.2305 29.8868C77.5617 29.9748 77.0917 30.4849 77.0917 34.1439C77.0917 37.6621 77.5797 38.2602 78.2305 38.3306C78.9174 38.3834 79.4959 37.6269 79.4959 34.1439C79.4959 30.4849 78.9717 29.7989 78.2305 29.8868Z" fill="black"/>
<path d="M91.6056 32.0857C90.5932 31.7163 90.539 30.5729 89.4544 29.9748C88.1167 29.1832 86.6705 30.0803 86.8694 30.696C87.0863 31.3645 88.1348 31.4876 89.8702 32.0681C92.6179 32.9829 93.5579 34.1439 93.4856 35.9558C93.4133 37.838 91.5513 39.1574 89.1471 39.1574C87.0501 39.1574 84.3747 38.1371 84.3747 36.677C84.3747 35.9558 84.9893 35.516 85.6763 35.5864C87.719 35.7799 87.3394 38.313 88.8759 38.6648C90.539 39.0694 91.5694 38.1547 91.3344 37.3983C91.1175 36.7122 89.7798 36.5363 88.0263 35.8854C84.9893 34.7596 84.3747 33.4402 84.4651 32.0153C84.5736 30.2035 86.7067 29.1656 89.1471 29.1656C90.8825 29.1656 92.9975 29.7989 93.1963 30.9423C93.3771 32.0505 92.2383 32.3144 91.6056 32.0857Z" fill="black"/>
<path fill-rule="evenodd" clip-rule="evenodd" d="M31.9348 0C37.7092 0 42.3903 4.70067 42.3903 10.4992C42.3903 13.7116 40.9536 16.5869 38.6902 18.5128C38.9395 19.764 39.0706 21.0582 39.0706 22.3831C39.0706 23.9095 38.8967 25.3951 38.5682 26.8212C40.757 28.3119 42.1953 30.8302 42.1953 33.6859C42.1953 38.2637 38.4997 41.9749 33.9409 41.9749C31.8216 41.9749 29.8892 41.1725 28.4276 39.8542C25.7603 41.2259 22.7378 42 19.5352 42C8.74624 42 3.45898e-05 33.2172 0 22.3831C1.14354e-05 11.549 8.74622 2.76617 19.5352 2.76615C21.1712 2.76615 22.7602 2.96826 24.2789 3.34868C26.1878 1.28859 28.9115 1.83842e-05 31.9348 0ZM21.9883 13.7443C20.4549 13.2469 18.7787 13.119 17.0844 13.4456C11.712 14.4811 8.19287 19.6941 9.22407 25.0889C10.2553 30.4837 15.4464 34.0178 20.8188 32.9823C26.1912 31.9468 29.7105 26.7338 28.6793 21.3389C28.6184 21.02 28.5426 20.7076 28.4534 20.4022C25.3968 19.3186 22.992 16.8486 21.9883 13.7443ZM30.6452 11.61C29.5839 10.4915 28.0929 10.188 27.3151 10.9323C26.5372 11.6766 26.767 13.1867 27.8283 14.3052C28.8895 15.4237 30.3805 15.727 31.1584 14.9827C31.9362 14.2385 31.7065 12.7285 30.6452 11.61Z" fill="#030303"/>
</svg>
